<?xml version="1.0" standalone="no"?>
<!DOCTYPE svg PUBLIC "-//W3C//DTD SVG 20010904//EN"
 "http://www.w3.org/TR/2001/REC-SVG-20010904/DTD/svg10.dtd">
<svg version="1.0" xmlns="http://www.w3.org/2000/svg"
 width="512.000000pt" height="512.000000pt" viewBox="0 0 512.000000 512.000000"
 preserveAspectRatio="xMidYMid meet">
<metadata>
Created by potrace 1.14, written by Peter Selinger 2001-2017
</metadata>
<g transform="translate(0.000000,512.000000) scale(0.100000,-0.100000)"
fill="#000000" stroke="none">
<path d="M0 2560 l0 -2560 789 0 c784 0 790 0 796 20 4 11 17 28 31 36 13 9
24 26 24 37 0 15 3 18 10 11 15 -15 -3 -60 -30 -76 -11 -7 -20 -16 -20 -20 0
-5 240 -8 534 -8 l534 0 11 33 c24 71 41 150 41 186 0 30 4 40 20 44 11 3 20
12 20 21 0 9 4 16 10 16 5 0 9 3 8 8 -4 16 26 61 43 65 11 3 19 14 19 25 0 10
8 27 19 36 15 13 18 30 17 81 -1 69 11 87 37 57 19 -22 31 -72 17 -72 -5 0
-10 -4 -10 -10 0 -5 6 -9 13 -7 14 2 13 -2 -9 -100 -18 -75 -25 -83 -58 -58
-26 20 -34 19 -32 -2 0 -12 -7 -19 -22 -21 -17 -3 -30 -19 -51 -67 -28 -61
-28 -64 -15 -116 14 -52 14 -53 -13 -81 -15 -15 -23 -31 -19 -35 4 -4 11 -1
16 7 7 10 10 11 10 3 0 -10 68 -13 305 -13 l305 0 0 39 c0 22 4 42 9 45 5 4 7
-4 4 -16 -4 -17 2 -14 22 14 18 24 36 38 50 38 12 0 34 9 49 21 25 19 28 20
51 5 22 -14 24 -14 28 2 3 10 5 6 6 -10 1 -18 -6 -32 -19 -40 -11 -7 -20 -23
-20 -36 0 -13 -5 -32 -10 -43 -11 -19 -6 -19 227 -17 232 3 238 4 235 23 -2
11 -5 59 -7 107 -2 48 -6 91 -9 97 -4 5 -2 12 4 16 5 3 10 3 11 -2 0 -4 7 14
14 41 12 43 12 53 -2 80 -13 24 -16 57 -15 151 2 71 7 122 13 126 6 3 11 27
11 53 0 25 4 48 9 52 5 3 9 -1 10 -8 0 -7 5 0 9 15 11 37 2 94 -16 94 -8 0
-14 -4 -14 -9 0 -4 -5 -8 -12 -8 -9 0 -9 3 0 12 21 21 13 28 -28 28 -22 0 -40
-4 -40 -10 0 -6 -10 -5 -25 2 -21 9 -25 19 -27 57 0 25 0 53 1 61 0 8 2 81 3
162 1 82 5 148 10 148 5 0 6 -5 2 -11 -6 -11 25 -79 36 -79 4 0 16 13 28 30
19 25 22 42 22 126 0 54 8 138 19 192 11 54 22 118 26 144 4 35 10 46 21 41 9
-3 14 2 14 15 0 12 4 23 9 26 5 3 12 32 16 63 4 34 18 79 34 108 24 42 29 65
33 148 l5 97 -34 -6 c-35 -7 -35 -6 -22 17 7 13 14 53 15 89 1 36 2 80 3 97 1
35 35 78 52 67 7 -4 6 2 -1 16 -10 18 -9 21 0 15 10 -6 12 3 8 38 -5 41 -2 49
23 72 16 14 29 30 29 35 0 6 7 10 15 10 16 0 16 -1 19 50 1 20 11 49 24 64 12
16 22 36 22 44 0 8 3 12 7 9 3 -4 17 23 30 60 36 101 38 113 19 113 -9 0 -16
-4 -16 -10 0 -5 -12 -10 -26 -10 -19 0 -25 -4 -20 -15 3 -8 3 -22 0 -30 -6
-14 -8 -13 -19 2 -10 13 -10 20 -2 26 9 6 9 10 0 14 -7 2 -13 13 -13 23 0 30
-11 49 -25 44 -21 -8 -25 10 -9 40 7 16 14 30 14 32 0 7 -44 -21 -56 -35 -6
-8 -18 -11 -27 -8 -9 3 -19 2 -22 -3 -4 -6 6 -11 22 -11 17 -1 21 -3 11 -6
-10 -2 -18 -9 -18 -14 0 -15 -28 -10 -38 7 -6 12 -11 6 -21 -26 -7 -23 -16
-38 -22 -34 -6 3 -9 -1 -7 -11 3 -19 -27 -44 -39 -31 -4 4 -7 37 -6 72 1 35
-2 62 -7 59 -5 -3 -14 3 -19 14 -14 26 -14 34 2 25 6 -4 4 2 -5 13 -10 11 -18
24 -18 29 0 6 -11 10 -25 10 -14 0 -25 -6 -25 -13 0 -7 -6 -13 -12 -13 -24 -1
-90 -71 -85 -90 3 -11 -7 -28 -24 -44 -16 -15 -36 -44 -46 -63 -9 -20 -25 -38
-35 -41 -10 -2 -16 -8 -13 -12 3 -4 -4 -10 -16 -13 -13 -4 -22 0 -27 11 -3 9
-18 30 -34 45 -15 16 -28 39 -28 51 0 20 -4 22 -31 18 -24 -4 -30 -2 -24 8 6
10 4 11 -11 5 -10 -4 -35 -10 -54 -13 -19 -2 -38 -9 -42 -16 -4 -6 -10 -7 -15
-3 -4 5 -1 12 6 16 8 5 10 14 6 21 -6 9 -10 9 -16 -1 -6 -9 -7 2 -3 27 4 26 2
44 -5 48 -6 4 -11 3 -11 -2 0 -6 -9 -8 -20 -5 -11 3 -20 12 -20 20 0 8 5 11
13 7 7 -4 9 -3 4 2 -9 9 -14 11 -48 13 -11 0 -18 5 -15 9 2 4 -4 8 -14 9 -19
2 -115 -86 -105 -95 3 -3 -4 -11 -14 -19 -12 -8 -22 -31 -27 -58 -3 -25 -10
-48 -15 -51 -5 -3 -7 -10 -4 -15 4 -5 1 -9 -5 -9 -6 0 -8 -5 -5 -10 4 -6 1
-17 -5 -25 -7 -8 -9 -15 -4 -15 4 0 -2 -10 -14 -23 -12 -13 -19 -27 -15 -30 3
-4 1 -7 -6 -7 -7 0 -9 -5 -6 -10 7 -12 -34 -74 -43 -65 -4 3 0 10 8 15 11 7 7
10 -15 10 -23 0 -27 3 -15 10 16 11 11 17 -35 45 -14 9 -14 15 -4 45 7 19 17
41 23 49 33 43 5 69 -39 35 -37 -28 -51 -30 -59 -9 -7 20 -26 19 -26 -1 0 -8
4 -13 9 -10 4 3 6 -6 3 -19 -2 -14 -8 -23 -12 -20 -8 5 -11 31 -13 97 -1 20
-5 34 -9 32 -12 -8 4 30 16 38 6 4 11 30 10 58 0 29 3 45 8 38 4 -7 8 -11 8
-8 1 3 4 25 6 50 3 25 10 47 15 48 5 2 9 21 9 43 0 39 0 39 -40 39 -32 0 -47
-6 -70 -30 -17 -17 -30 -34 -30 -38 0 -4 -13 -16 -29 -27 -16 -10 -27 -23 -25
-27 3 -4 0 -8 -6 -8 -7 0 -10 -7 -7 -14 4 -9 -1 -17 -11 -20 -9 -3 -52 -40
-94 -81 -60 -59 -83 -75 -105 -74 -25 0 -26 1 -8 9 18 8 17 9 -8 9 -16 1 -26
5 -22 11 3 6 2 10 -3 10 -6 0 -9 11 -8 24 0 13 6 22 12 19 11 -4 30 14 23 22
-2 1 -21 -4 -42 -12 -30 -12 -37 -20 -34 -34 6 -21 -34 -59 -61 -59 -9 0 -13
-7 -9 -20 3 -10 2 -19 -2 -18 -22 2 -33 -6 -48 -40 -10 -25 -26 -43 -45 -50
-15 -5 -28 -9 -28 -7 0 12 25 55 32 55 4 0 8 6 8 14 0 7 9 25 20 38 10 14 16
28 13 32 -3 3 -1 6 5 6 16 0 9 125 -8 145 -7 8 -21 15 -32 15 -11 0 -28 4 -38
10 -22 12 -59 -14 -64 -45 -2 -11 -8 -19 -13 -18 -6 1 -23 -16 -39 -37 -27
-36 -32 -39 -64 -33 -19 3 -37 7 -39 9 -2 2 3 20 12 41 10 25 21 37 31 35 10
-2 16 4 16 16 0 10 9 28 20 40 26 28 29 147 4 178 -15 18 -15 18 -10 0 4 -12
-2 -24 -19 -38 -17 -13 -25 -29 -25 -50 0 -17 -6 -39 -13 -47 -17 -21 -37 -82
-41 -125 -2 -20 -8 -42 -15 -49 -6 -8 -8 -16 -5 -20 3 -3 -10 -13 -30 -22 -34
-16 -53 -45 -42 -63 3 -5 29 -10 58 -11 61 -2 66 -5 44 -26 -22 -22 -20 -41 6
-59 13 -9 16 -16 9 -16 -8 0 -11 -7 -8 -20 3 -10 2 -20 -2 -22 -19 -9 -69 -83
-64 -95 3 -8 1 -18 -4 -22 -6 -3 -13 -25 -16 -48 -4 -23 -15 -60 -27 -82 -11
-22 -20 -56 -20 -75 0 -19 -4 -38 -10 -41 -25 -16 -2 -211 24 -202 6 3 19 0
29 -5 15 -8 18 -17 13 -41 -3 -18 -2 -48 4 -67 6 -21 6 -47 1 -69 -5 -20 -12
-55 -15 -79 -3 -23 -10 -51 -15 -61 -6 -10 -12 -35 -15 -54 -5 -42 -27 -88
-34 -69 -2 7 2 20 10 29 9 12 9 15 1 9 -8 -4 -13 -2 -14 6 -1 7 -5 2 -9 -12
-12 -38 -11 -115 1 -127 13 -13 39 -6 39 9 0 5 -6 6 -13 2 -8 -4 -9 -4 -2 3
20 18 65 33 65 21 0 -6 9 -3 19 6 20 18 61 15 61 -5 0 -5 23 -9 50 -9 l50 0 0
-41 c0 -40 -12 -72 -35 -96 -7 -7 -16 -32 -19 -58 -4 -25 -11 -45 -17 -45 -12
0 -12 -77 0 -82 5 -2 6 -29 1 -63 -4 -33 -8 -49 -10 -35 l-2 25 -8 -25 c-12
-38 -12 -62 2 -54 7 4 8 3 4 -4 -4 -6 -13 -9 -21 -5 -10 3 -15 -2 -15 -16 0
-12 5 -21 10 -21 6 0 10 -19 10 -41 0 -36 -2 -40 -15 -29 -11 9 -15 9 -15 1 0
-7 -5 -9 -10 -6 -5 3 -10 1 -10 -6 0 -9 -3 -9 -14 0 -12 10 -15 7 -19 -16 -3
-20 -4 -16 -6 15 0 23 -5 42 -11 42 -5 0 -10 5 -10 10 0 6 7 10 15 10 10 0 15
10 15 30 0 17 5 30 10 30 6 0 10 -6 10 -12 0 -9 4 -8 10 2 5 8 10 32 10 53 0
30 -4 37 -19 37 -11 0 -22 -6 -24 -12 -4 -10 -6 -10 -6 0 -2 21 -38 14 -44 -9
-7 -24 -33 -20 -29 5 2 9 -4 16 -13 16 -9 0 -13 -5 -10 -10 8 -13 -5 -13 -25
0 -13 8 -12 10 3 10 19 0 21 8 7 30 -8 12 -12 12 -18 2 -10 -14 -55 -3 -52 13
1 5 -3 11 -9 13 -11 4 -45 -53 -47 -78 -3 -34 -16 -63 -24 -50 -8 13 -30 -39
-30 -71 0 -11 -4 -19 -9 -19 -5 0 -18 -30 -30 -67 -31 -97 -43 -114 -87 -129
-50 -17 -54 -17 -54 2 0 9 -6 14 -13 11 -6 -2 -11 -16 -9 -30 2 -22 -2 -28
-30 -35 -22 -6 -34 -16 -38 -32 -3 -15 -15 -26 -29 -30 -27 -6 -58 -59 -66
-113 -3 -21 -10 -35 -16 -32 -5 4 -10 0 -10 -7 -1 -7 -2 -20 -3 -28 0 -9 -10
-14 -23 -13 -27 3 -83 -50 -84 -80 -1 -18 -2 -16 -9 7 -5 16 -7 33 -4 38 3 4
0 8 -7 8 -7 0 -9 3 -6 6 8 8 -24 64 -36 64 -4 0 -6 -4 -3 -9 4 -5 0 -12 -6
-14 -11 -4 -11 -6 0 -6 10 -1 10 -5 0 -21 -9 -14 -24 -20 -50 -20 -41 0 -48
12 -22 37 10 11 14 32 13 72 -1 31 1 82 4 114 4 31 4 56 0 55 -21 -4 -64 16
-59 28 9 23 -12 25 -27 3 -11 -15 -16 -17 -21 -7 -3 7 -4 3 -2 -9 2 -12 0 -23
-5 -25 -10 -4 -11 -56 -3 -115 4 -28 2 -43 -5 -43 -6 0 -11 -9 -11 -20 0 -11
5 -20 10 -20 6 0 10 -5 10 -11 0 -5 -4 -7 -10 -4 -7 4 -7 -3 0 -20 6 -15 10
-58 10 -97 0 -67 -2 -73 -37 -112 -20 -22 -45 -44 -54 -48 -22 -8 -33 16 -19
42 6 10 10 39 10 64 0 40 18 76 22 44 1 -7 4 21 7 62 4 41 3 77 -1 78 -18 8
-7 42 12 42 24 0 24 3 5 40 -8 16 -13 41 -10 57 3 15 8 46 11 68 3 22 8 47 11
55 4 8 8 25 9 37 4 32 24 64 35 57 12 -7 49 24 49 40 0 6 -5 4 -10 -4 -5 -8
-10 -10 -10 -5 0 17 21 34 35 29 9 -4 15 13 20 53 6 44 9 53 16 38 7 -18 8
-18 9 5 1 14 1 53 0 88 -1 59 2 67 31 64 3 -1 14 26 23 59 10 32 21 59 25 59
3 0 5 24 3 52 -2 39 0 49 7 38 8 -11 10 3 9 50 0 38 -3 57 -8 45 -6 -19 -7
-19 -17 0 -7 12 -7 29 -2 49 10 35 3 86 -13 86 -6 0 -7 15 -3 40 6 36 5 40
-14 40 -21 0 -22 4 -19 93 1 51 8 103 15 117 7 14 13 37 13 53 0 15 8 35 19
46 13 13 21 41 26 92 4 41 14 88 23 104 9 18 16 62 17 111 1 44 6 91 10 103 4
14 2 33 -6 48 -11 20 -11 26 0 33 10 6 11 18 5 46 l-8 39 -4 -42 c-2 -24 -7
-43 -13 -43 -5 0 -9 -17 -9 -37 -1 -36 -1 -37 -14 -15 -11 22 -13 19 -24 -43
-7 -36 -10 -71 -6 -77 4 -7 3 -8 -4 -4 -11 6 -17 -13 -13 -37 1 -5 -3 -6 -8
-3 -11 7 -71 -84 -71 -107 0 -10 -5 -17 -11 -17 -5 0 -7 5 -4 10 4 6 -10 10
-33 10 -33 0 -44 -5 -66 -34 -14 -19 -26 -39 -26 -43 0 -5 -13 -30 -30 -56
-16 -26 -30 -54 -30 -62 0 -7 -7 -21 -16 -29 -8 -9 -13 -16 -9 -16 4 0 0 -7
-9 -15 -8 -8 -26 -15 -40 -15 -21 0 -26 -5 -26 -25 0 -26 -41 -55 -80 -55 -11
0 -20 -4 -20 -9 0 -5 -6 -11 -14 -14 -18 -7 -20 145 -4 279 9 83 13 95 42 125
18 19 38 43 44 54 8 14 11 16 12 5 0 -8 9 0 20 18 11 18 18 37 15 43 -4 5 -1
9 5 9 6 0 8 5 5 10 -3 6 -1 10 6 10 7 0 10 3 6 6 -8 8 12 28 38 38 15 6 17 9
6 16 -8 4 -21 6 -29 2 -10 -3 -13 -1 -8 6 10 16 75 27 88 14 6 -6 17 -8 24 -5
16 6 19 33 4 33 -5 0 -7 14 -3 33 7 41 23 59 23 26 0 -14 -6 -31 -12 -38 -11
-11 -10 -12 2 -5 8 5 22 7 31 6 18 -3 18 -5 19 122 1 83 12 118 33 111 18 -7
42 16 54 50 11 30 11 29 18 -22 9 -60 20 -68 29 -20 5 22 9 28 15 19 6 -10 10
-8 14 10 4 13 15 33 27 45 14 15 21 39 23 76 2 29 7 58 11 65 4 7 19 51 32 99
29 97 59 163 75 163 6 0 9 7 5 15 -3 8 -2 14 2 14 30 -5 42 3 42 29 0 15 12
61 26 102 14 41 27 89 29 105 7 64 39 160 62 185 12 13 15 13 23 1 7 -12 11
-12 24 -2 12 10 16 10 16 2 0 -23 17 -1 23 29 4 16 6 33 6 36 0 4 3 10 8 13
20 14 60 196 40 184 -5 -3 -12 0 -16 6 -6 8 -15 9 -33 2 -18 -7 -29 -6 -37 2
-16 16 -40 -10 -43 -46 -1 -15 -6 -27 -10 -27 -4 0 -8 -9 -8 -20 0 -13 -5 -18
-15 -14 -8 4 -15 1 -15 -6 0 -17 -46 -70 -54 -63 -3 4 -6 -3 -6 -15 0 -14 -6
-22 -16 -22 -10 0 -14 6 -10 15 3 9 0 15 -10 15 -8 0 -12 -5 -9 -10 4 -6 2
-16 -3 -23 -5 -7 -15 -40 -23 -74 -12 -57 -19 -68 -41 -64 -5 0 -8 -3 -8 -9 0
-5 -10 -10 -21 -10 -16 0 -20 5 -16 20 3 11 0 18 -7 17 -6 -1 -11 6 -11 15 0
10 -8 23 -18 30 -10 8 -22 38 -28 76 -9 49 -15 62 -29 62 -10 0 -20 -9 -23
-20 -7 -26 -27 -26 -34 0 -5 19 -6 18 -35 -3 -41 -30 -58 -67 -58 -128 0 -63
-28 -169 -47 -176 -7 -3 -13 -11 -13 -19 0 -8 -3 -14 -8 -14 -9 0 -30 -47 -34
-75 -5 -30 -33 -66 -49 -63 -8 2 -13 -2 -12 -9 2 -7 -3 -10 -11 -7 -7 3 -21
-6 -30 -20 -9 -15 -13 -26 -9 -26 3 0 -11 -15 -31 -34 -22 -19 -36 -39 -32
-45 4 -6 3 -11 -2 -11 -14 0 -42 -81 -42 -124 l0 -38 -26 17 c-15 9 -23 12
-20 6 4 -6 2 -11 -4 -11 -14 0 -43 68 -34 82 4 6 -1 8 -13 4 -26 -8 -33 23
-33 145 0 53 -4 89 -10 89 -5 0 -11 15 -11 33 l-2 32 -4 -30 c-5 -33 -69 -134
-90 -142 -7 -3 -13 -11 -13 -18 0 -8 -5 -26 -11 -42 l-10 -28 -19 25 c-11 14
-20 19 -20 12 0 -7 -5 -10 -10 -7 -6 4 -10 3 -9 -2 2 -4 -2 -19 -9 -33 -6 -14
-13 -37 -16 -51 -10 -46 -38 -71 -69 -64 -23 6 -27 12 -27 41 0 19 5 34 10 34
6 0 9 3 8 8 -3 14 23 122 32 127 5 3 18 38 30 78 12 39 25 82 31 95 5 13 9 31
9 41 0 43 52 132 92 158 l40 27 18 -24 c10 -13 15 -30 13 -38 -3 -8 0 -18 8
-23 11 -7 12 -12 1 -29 -7 -12 -8 -20 -2 -20 5 0 10 -10 10 -22 0 -13 6 -42
13 -65 l12 -42 17 42 c9 23 19 51 23 62 l7 20 8 -20 c8 -19 11 -18 14 4 2 19
16 24 31 11 12 -10 21 -5 55 30 22 23 40 45 41 48 5 44 12 68 21 73 6 4 8 11
5 17 -8 11 47 97 73 115 9 6 19 16 21 22 2 5 11 11 19 12 8 1 16 7 18 13 2 5
7 8 11 6 4 -3 7 4 8 14 1 10 12 30 25 45 13 15 23 30 23 33 1 10 14 50 32 100
9 25 27 49 42 58 14 8 18 13 8 10 -11 -4 -16 -2 -11 5 3 6 15 9 25 6 12 -3 19
0 19 9 0 17 16 19 26 3 4 -8 16 -1 34 20 48 54 92 34 54 -25 -14 -21 -16 -42
-11 -122 3 -54 9 -105 12 -114 7 -18 45 -32 45 -16 0 6 6 8 13 5 7 -3 13 5 14
21 0 15 6 28 12 30 6 2 11 11 11 19 0 9 7 21 16 28 10 6 22 27 28 46 6 19 18
34 26 34 9 0 15 9 14 23 -1 12 4 21 10 20 6 -1 23 6 38 16 15 10 32 15 38 11
14 -9 50 32 50 56 0 15 5 16 29 9 22 -6 31 -5 35 5 2 7 21 21 40 30 19 9 38
26 42 37 4 14 9 17 17 9 8 -8 22 2 51 33 49 52 71 62 73 33 4 -45 45 -59 55
-18 2 7 13 24 26 37 13 13 20 29 17 34 -4 6 7 22 24 36 17 14 31 32 31 39 0 7
8 15 19 18 13 3 22 21 31 58 7 30 13 56 13 59 0 3 7 11 16 18 9 8 10 11 4 7
-7 -3 -13 -1 -13 4 0 6 6 11 14 11 9 0 16 12 18 28 3 24 8 27 42 30 36 3 38 2
22 -13 -9 -9 -16 -25 -16 -36 0 -16 4 -19 23 -13 12 3 22 7 22 8 0 0 8 18 19
38 21 41 16 88 -10 88 -8 0 -27 -12 -41 -26 -32 -32 -46 -21 -47 38 -1 30 3
42 12 40 7 -1 15 11 18 28 4 16 10 30 15 30 5 0 9 12 9 28 0 15 9 47 20 71 11
24 20 47 20 52 0 5 -430 9 -1020 9 l-1020 0 0 -2560z m1880 2413 c0 -16 2 -16
11 -3 8 11 9 5 4 -25 -4 -22 -8 -50 -9 -62 -1 -16 -4 -19 -14 -11 -9 8 -11 7
-7 -5 4 -8 1 -18 -6 -23 -8 -5 -10 -3 -5 7 4 8 -2 3 -13 -11 -11 -14 -21 -29
-20 -35 0 -5 6 -1 14 9 8 11 15 14 15 8 0 -19 -39 -54 -52 -46 -6 4 -8 3 -4
-4 3 -5 3 -12 -1 -14 -5 -1 -18 -21 -30 -43 -13 -22 -26 -39 -31 -38 -5 1 -8
-8 -8 -20 1 -13 -5 -22 -14 -22 -15 0 -16 11 -7 85 2 21 10 35 18 35 9 0 14
11 14 30 0 35 23 95 36 95 5 0 9 9 9 19 0 11 6 26 13 33 8 7 12 19 9 27 -3 9
2 11 17 6 15 -5 21 -2 21 9 0 9 9 16 20 16 12 0 20 -7 20 -17z m47 -35 c-3 -8
-6 -5 -6 6 -1 11 2 17 5 13 3 -3 4 -12 1 -19z m-327 -164 c0 -17 -4 -23 -12
-18 -10 6 -10 4 0 -7 13 -14 17 -60 5 -58 -35 6 -73 -3 -73 -16 0 -18 -17 -20
-22 -3 -3 7 -11 -1 -19 -17 -29 -62 -53 -8 -24 56 15 32 35 48 55 45 3 -1 19
9 35 21 39 29 55 29 55 -3z m77 -126 c-3 -8 -6 -5 -6 6 -1 11 2 17 5 13 3 -3
4 -12 1 -19z m-257 -79 c0 -24 -23 -21 -28 4 -2 10 3 17 12 17 10 0 16 -9 16
-21z m-60 -339 c0 -5 -6 -10 -14 -10 -8 0 -18 5 -21 10 -3 6 3 10 14 10 12 0
21 -4 21 -10z m1340 -1169 c0 -6 -4 -13 -10 -16 -5 -3 -10 1 -10 9 0 9 5 16
10 16 6 0 10 -4 10 -9z m353 -1338 c-7 -3 -13 -9 -13 -15 0 -6 7 -8 15 -4 10
3 15 -1 16 -12 1 -11 4 -8 9 8 7 22 8 20 9 -15 0 -29 -2 -36 -9 -25 -8 12 -10
10 -10 -9 0 -16 -4 -21 -15 -17 -9 3 -15 0 -15 -10 0 -20 -19 -8 -30 20 l-9
21 0 -22 c-1 -13 -5 -23 -11 -23 -5 0 -10 -11 -10 -24 0 -14 -4 -28 -10 -31
-5 -3 -10 -19 -10 -34 0 -32 -24 -60 -33 -39 -6 17 15 108 25 108 5 0 8 7 8
15 0 8 6 25 13 38 17 31 79 89 86 81 3 -4 0 -9 -6 -11z m270 -103 c3 -11 1
-20 -4 -20 -5 0 -9 9 -9 20 0 11 2 20 4 20 2 0 6 -9 9 -20z m-263 -24 c0 -3
-4 -8 -10 -11 -5 -3 -10 -1 -10 4 0 6 5 11 10 11 6 0 10 -2 10 -4z m-180 -141
c0 -8 9 -15 20 -15 20 0 26 -11 13 -23 -3 -4 -12 -2 -20 4 -10 9 -13 4 -13
-25 0 -29 -4 -36 -19 -36 -12 0 -23 -11 -29 -27 -7 -18 -11 -22 -11 -10 -1 9
-7 17 -14 17 -24 0 -8 58 16 62 14 2 24 14 29 36 9 32 28 45 28 17z m-80 -165
c0 -5 -5 -10 -11 -10 -5 0 -7 5 -4 10 3 6 8 10 11 10 2 0 4 -4 4 -10z m-2055
-60 c9 -16 11 -30 6 -30 -10 0 -18 -31 -26 -100 -12 -104 -15 -116 -37 -116
-19 0 -20 5 -15 66 3 36 8 82 12 104 6 41 30 106 39 106 3 0 12 -13 21 -30z
m212 -12 c-3 -8 -6 -5 -6 6 -1 11 2 17 5 13 3 -3 4 -12 1 -19z m1843 -8 c0 -5
-9 -10 -20 -10 -11 0 -20 5 -20 10 0 6 9 10 20 10 11 0 20 -4 20 -10z m-2098
-266 c-7 -36 -22 -39 -22 -5 0 22 4 31 13 28 6 -2 10 -13 9 -23z m-78 -10 c9
-3 16 -14 16 -24 0 -11 5 -22 10 -25 6 -3 10 -26 10 -49 0 -24 7 -61 16 -82
13 -32 14 -36 1 -26 -13 11 -13 6 -2 -41 15 -64 4 -166 -19 -183 -9 -6 -16
-17 -16 -25 -1 -8 -10 -2 -23 14 -13 15 -27 24 -31 20 -4 -5 -18 -8 -29 -8
-16 0 -25 -9 -33 -34 -6 -18 -18 -38 -27 -43 -15 -8 -17 -2 -16 44 1 29 10 71
19 93 10 22 23 57 30 78 6 20 15 37 20 37 4 0 10 9 13 21 3 12 10 18 16 14 6
-3 9 -10 6 -15 -3 -5 -1 -11 4 -15 17 -10 24 64 12 118 -21 92 -23 107 -17
122 6 16 16 18 40 9z m1796 -115 c0 -10 -4 -19 -10 -19 -5 0 -10 12 -10 26 0
14 4 23 10 19 6 -3 10 -15 10 -26z m-1696 -134 c4 -19 3 -43 -3 -52 -8 -16
-10 -15 -15 7 -11 51 -10 80 3 80 5 0 12 -16 15 -35z m1320 -27 c-3 -5 -15
-53 -25 -106 -11 -53 -22 -104 -26 -112 -3 -8 -7 -18 -7 -22 -1 -3 -4 -10 -8
-14 -5 -4 -8 -15 -8 -24 0 -10 -6 -23 -14 -29 -20 -17 -31 72 -12 102 8 12 17
50 20 84 6 58 26 113 50 139 13 14 39 -2 30 -18z m1134 -12 c4 -44 -11 -66
-45 -66 -13 0 -22 -4 -19 -9 5 -8 -25 -40 -53 -56 -10 -6 -11 -2 -6 15 4 14 3
25 -5 30 -8 5 -3 10 14 14 14 3 26 13 26 22 0 9 9 18 20 21 11 3 24 20 31 40
14 43 33 38 37 -11z m-922 -44 c27 -18 31 -44 14 -108 -9 -35 -18 -65 -21 -67
-2 -2 -17 10 -34 25 -23 22 -26 28 -12 28 9 0 17 -5 17 -12 0 -6 2 -9 5 -7 2
3 -3 24 -11 48 -13 39 -13 45 1 61 8 9 15 22 15 28 0 14 10 15 26 4z m-81 -32
c3 -5 1 -10 -4 -10 -6 0 -11 5 -11 10 0 6 2 10 4 10 3 0 8 -4 11 -10z m865
-70 c0 -5 -7 -7 -15 -4 -8 4 -15 8 -15 10 0 2 7 4 15 4 8 0 15 -4 15 -10z
m-1123 -167 c-3 -10 -5 -2 -5 17 0 19 2 27 5 18 2 -10 2 -26 0 -35z m-115
-110 c3 -32 2 -69 -2 -82 -6 -24 -7 -24 -15 -6 -10 24 -9 21 -18 68 -5 22 -14
37 -22 37 -36 0 0 39 36 40 13 0 18 -13 21 -57z m1343 -53 c3 -5 -1 -10 -9
-10 -9 0 -16 5 -16 10 0 6 4 10 9 10 6 0 13 -4 16 -10z"/>
<path d="M620 829 c0 -28 4 -48 9 -44 5 3 11 0 14 -7 2 -7 3 -4 1 7 -2 11 -4
37 -4 58 0 20 -4 37 -10 37 -5 0 -10 -23 -10 -51z"/>
<path d="M2180 5103 c0 -15 2 -16 10 -3 8 13 10 12 10 -2 0 -19 8 -22 34 -12
9 3 13 10 10 15 -3 5 6 4 19 -2 19 -9 31 -8 53 5 28 15 27 15 -53 16 -73 0
-83 -2 -83 -17z"/>
<path d="M2590 5111 c0 -6 5 -13 10 -16 11 -7 -21 -37 -50 -48 -12 -4 -11 -6
3 -6 12 -1 16 -5 11 -13 -5 -9 -2 -9 9 1 14 11 20 11 32 1 8 -7 12 -16 9 -21
-3 -5 0 -9 5 -9 14 0 14 16 -1 43 -10 19 -9 20 4 9 9 -7 18 -9 20 -3 5 16 88
17 98 1 5 -8 10 -12 12 -10 2 3 8 14 14 25 7 11 21 19 32 18 11 -1 26 4 32 12
7 8 22 15 34 15 17 0 18 -2 6 -10 -10 -6 -11 -10 -2 -10 6 0 12 -11 12 -25 0
-31 29 -34 50 -5 8 11 18 20 22 20 3 0 10 -9 13 -20 10 -30 29 -24 48 15 9 20
17 38 17 40 0 3 -23 5 -51 5 -31 0 -48 -4 -44 -10 3 -6 -5 -10 -19 -10 -14 0
-28 5 -31 10 -8 13 -295 14 -295 1z"/>
<path d="M3041 5104 c0 -11 3 -14 6 -6 3 7 2 16 -1 19 -3 4 -6 -2 -5 -13z"/>
<path d="M3533 5095 c-13 -12 -23 -28 -23 -36 0 -9 3 -10 8 -3 8 13 64 25 56
13 -8 -13 3 -11 36 6 16 8 35 14 42 13 6 -2 14 5 16 15 3 15 -4 17 -55 16 -46
-1 -63 -6 -80 -24z"/>
<path d="M3680 5104 c0 -9 5 -14 12 -12 18 6 21 28 4 28 -9 0 -16 -7 -16 -16z"/>
<path d="M3946 5103 c-9 -32 -4 -148 8 -162 8 -11 8 -13 -1 -7 -7 4 -13 3 -13
-2 0 -18 13 -20 36 -5 19 12 24 13 25 2 0 -8 5 -4 11 9 6 12 17 22 25 22 7 0
13 5 13 11 0 5 -6 7 -12 3 -10 -6 -9 -3 0 8 8 9 20 14 28 11 10 -3 14 2 14 19
0 21 5 25 32 26 41 1 68 -14 68 -38 0 -26 14 -25 42 3 13 13 31 26 41 30 9 3
17 11 17 17 0 7 6 8 19 0 11 -5 33 -10 50 -10 17 0 42 -11 61 -27 23 -19 34
-23 39 -14 5 7 15 13 24 15 8 1 37 25 64 54 l49 52 -207 0 c-199 0 -208 -1
-214 -20 -3 -11 -11 -20 -18 -20 -8 0 -8 3 1 12 24 24 10 28 -92 28 -91 0
-105 -2 -110 -17z"/>
<path d="M4643 5104 c15 -8 27 -21 27 -29 0 -8 5 -15 10 -15 6 0 19 -14 30
-32 18 -30 18 -34 3 -50 -10 -11 -12 -18 -5 -18 7 0 12 -12 12 -27 0 -22 -2
-25 -10 -13 -6 9 -10 10 -10 3 0 -6 -3 -18 -6 -27 -4 -11 -1 -16 10 -16 9 0
16 -4 16 -8 0 -4 14 -16 30 -25 l30 -18 0 27 c0 20 4 25 16 20 9 -3 19 -6 23
-6 5 0 7 -12 5 -27 -1 -15 3 -34 9 -42 10 -12 7 -13 -20 -8 -18 4 -33 3 -33
-2 0 -11 29 -23 40 -16 4 3 10 -9 12 -25 5 -32 -24 -71 -37 -51 -4 7 -14 4
-27 -9 -12 -11 -28 -20 -35 -20 -7 0 -13 -7 -13 -16 0 -12 -7 -15 -25 -12 -13
3 -22 2 -20 -2 6 -10 -24 -22 -36 -14 -6 3 -21 -2 -34 -10 -21 -14 -25 -14
-25 -2 0 8 5 18 10 21 6 4 8 11 4 16 -9 15 -6 106 4 126 5 10 7 24 5 31 -9 23
-32 12 -60 -28 -15 -22 -34 -40 -40 -40 -7 0 -12 -5 -10 -12 1 -8 -9 -12 -25
-12 -19 1 -29 -5 -33 -17 -6 -18 -39 -33 -61 -28 -19 4 -113 -14 -109 -21 3
-4 -19 -7 -47 -6 -50 1 -52 2 -59 33 -4 20 -1 42 7 58 20 38 -1 39 -41 0 -21
-19 -41 -33 -45 -30 -9 6 -63 -11 -106 -32 -28 -15 -35 -14 -79 1 -34 11 -51
13 -55 5 -5 -7 -9 -5 -13 5 -4 9 -13 16 -21 16 -34 0 -42 71 -12 109 8 10 5
18 -13 32 -21 17 -24 17 -47 3 -13 -9 -24 -21 -24 -26 0 -5 -10 -8 -22 -7 -36
5 -48 -8 -41 -43 4 -23 3 -29 -6 -24 -6 4 -23 0 -37 -9 -19 -12 -25 -23 -21
-41 6 -32 -12 -42 -30 -18 -8 10 -16 18 -19 16 -9 -5 -31 13 -45 38 -13 25
-15 31 -18 50 0 6 -8 10 -16 10 -8 0 -15 7 -15 15 0 15 -14 20 -85 29 -22 3
-60 9 -84 12 -41 7 -46 5 -81 -32 -20 -21 -46 -46 -57 -56 -20 -15 -21 -15
-26 3 -7 26 -47 25 -54 -1 -3 -11 -9 -18 -13 -15 -5 3 -14 -11 -20 -30 -10
-30 -35 -55 -54 -55 -3 0 -6 9 -6 20 0 11 5 20 10 20 6 0 10 8 10 18 0 11 9
27 20 37 24 22 26 60 4 69 -28 11 -62 6 -68 -9 -3 -8 -11 -15 -18 -15 -16 0
-72 -58 -83 -85 -4 -13 -9 -15 -12 -7 -10 26 -23 10 -23 -28 0 -38 -2 -40 -30
-40 -28 0 -30 -2 -30 -40 0 -22 -4 -40 -10 -40 -5 0 -6 8 -3 18 6 14 4 15 -9
4 -12 -10 -14 -19 -7 -40 5 -15 11 -40 14 -56 5 -23 8 -27 16 -15 6 9 7 -14 3
-66 -4 -44 -11 -82 -16 -83 -4 -2 -5 -9 -2 -14 4 -7 2 -8 -4 -4 -7 4 -12 16
-12 27 0 10 -4 19 -10 19 -5 0 -10 -7 -10 -15 0 -22 -17 -18 -23 5 -4 16 -11
19 -37 13 -28 -5 -32 -3 -28 13 2 11 11 18 21 18 13 -1 17 6 17 32 0 33 -1 34
-39 34 -22 0 -43 -5 -47 -11 -4 -8 0 -9 15 -4 13 4 27 1 36 -9 21 -21 19 -22
-19 -18 -28 3 -37 -1 -55 -26 -11 -17 -21 -37 -21 -46 0 -9 -7 -16 -15 -16 -8
0 -15 -9 -15 -21 0 -11 -3 -18 -8 -15 -4 2 -15 -2 -25 -9 -10 -7 -14 -16 -9
-19 9 -5 5 -33 -18 -125 -8 -32 -8 -47 1 -57 15 -18 3 -34 -28 -34 -16 0 -27
-7 -30 -20 -3 -11 -11 -20 -18 -20 -9 0 -11 -8 -7 -22 3 -14 2 -19 -6 -14 -14
9 -15 5 -2 -28 6 -16 6 -27 0 -31 -6 -4 -10 3 -10 15 0 12 -4 18 -10 15 -6 -4
-8 -16 -4 -27 4 -13 2 -18 -4 -14 -5 3 -10 0 -9 -7 1 -30 -4 -47 -14 -47 -5 0
-7 5 -4 11 4 6 -1 6 -12 -2 -20 -12 -50 -95 -39 -106 3 -3 8 3 12 13 3 10 12
33 20 49 13 28 14 25 12 -49 l-3 -80 48 3 c28 1 47 -2 47 -8 0 -6 13 -11 30
-11 25 0 32 6 49 45 11 25 18 51 15 59 -3 7 2 19 11 26 10 8 15 9 15 1 0 -6
-4 -11 -10 -11 -5 0 -10 -4 -10 -10 0 -14 33 -13 48 2 9 9 15 9 24 0 18 -18
28 -14 28 11 0 12 6 29 13 37 16 20 67 43 67 30 0 -6 4 -10 9 -10 6 0 9 12 8
26 -3 40 21 41 37 2 12 -27 16 -30 21 -15 9 21 34 22 41 2 4 -10 20 -15 46
-15 l40 0 -7 -77 c-4 -43 -11 -79 -16 -81 -5 -2 -9 -17 -9 -33 0 -29 -24 -42
-32 -17 -3 9 -6 9 -12 0 -4 -7 -2 -12 3 -12 6 0 11 -7 11 -15 0 -9 12 -18 30
-21 40 -8 57 -29 40 -49 -10 -12 -9 -15 6 -15 11 0 25 9 32 21 8 12 9 18 3 14
-16 -10 -13 21 3 35 8 6 20 28 27 48 7 20 22 53 35 73 13 20 20 40 17 43 -4 3
-1 6 5 6 7 0 12 8 12 18 0 10 11 29 24 41 14 13 26 34 28 48 3 22 4 23 23 9
17 -14 18 -17 5 -26 -13 -8 -13 -10 3 -10 21 0 23 -28 2 -36 -25 -10 -17 -24
15 -24 21 0 30 5 30 16 0 9 7 14 18 12 14 -3 16 -13 14 -53 -2 -36 0 -46 8
-35 5 8 10 11 10 6 0 -6 5 -5 11 1 6 6 18 9 25 6 16 -6 19 -59 4 -68 -5 -3
-10 -21 -10 -38 l1 -32 15 28 c8 15 12 32 8 38 -3 6 3 13 15 16 12 3 21 12 21
20 0 17 -24 43 -39 43 -6 0 -11 9 -11 20 0 11 5 20 11 20 14 0 39 -25 39 -39
0 -6 4 -11 9 -11 5 0 14 23 21 51 7 29 19 53 29 57 24 9 41 28 41 46 0 9 8 16
19 16 29 0 35 18 9 23 -13 2 1 2 31 0 32 -3 56 -1 60 6 4 6 22 14 40 17 33 7
34 6 27 -19 -4 -16 -2 -27 4 -27 5 0 10 -13 10 -30 0 -19 -5 -30 -14 -30 -8 0
-16 -16 -20 -40 -3 -22 -10 -40 -14 -40 -11 0 -8 -112 4 -139 9 -21 12 -22 17
-7 4 10 12 14 18 10 8 -4 9 -3 5 4 -4 6 10 27 31 47 27 25 34 38 26 46 -8 8
-1 20 24 46 26 26 38 32 44 22 6 -10 10 -10 23 0 9 7 22 11 29 8 10 -4 13 2 9
19 -4 23 13 35 20 13 5 -16 78 0 78 17 0 8 4 14 9 14 5 0 17 3 27 7 12 4 15 3
10 -5 -4 -7 -2 -12 5 -12 7 0 2 -8 -10 -19 l-21 -18 30 -13 c31 -13 41 -40 15
-40 -20 0 -8 -27 16 -33 10 -3 19 -1 19 5 0 5 6 8 13 5 6 -2 11 -14 9 -27 -4
-21 -3 -22 19 -6 26 17 99 22 99 6 0 -5 5 -10 10 -10 6 0 10 7 10 15 0 9 12
20 26 25 14 6 28 19 31 30 3 11 12 20 19 20 8 0 23 9 34 20 12 12 20 15 20 8
1 -7 6 -4 13 8 7 12 18 19 25 17 7 -3 12 4 12 17 0 13 4 18 11 14 6 -3 8 -17
4 -31 -4 -18 0 -31 14 -44 19 -18 57 -16 45 2 -3 5 1 6 9 3 8 -3 17 3 21 13 6
15 8 15 17 3 8 -13 10 -13 18 0 5 8 7 18 5 22 -3 4 3 8 13 8 11 0 24 5 31 12
9 9 12 8 12 -5 0 -10 8 -17 19 -17 15 0 19 -10 24 -51 4 -29 13 -59 22 -69 8
-9 15 -27 15 -41 0 -25 -2 -29 57 96 11 22 34 66 51 98 18 31 32 64 32 72 0 8
4 15 9 15 20 0 20 31 -1 39 -18 7 -19 9 -5 14 10 4 17 2 17 -2 0 -15 33 -22
44 -11 8 8 6 9 -6 5 -15 -6 -18 -1 -18 33 0 27 5 42 16 46 8 3 13 10 10 15 -9
15 41 41 79 41 28 0 35 -4 35 -20 0 -11 -4 -20 -10 -20 -5 0 -10 -4 -10 -10 0
-5 11 -10 25 -10 22 0 25 4 25 40 0 33 -3 38 -17 34 -10 -3 -5 2 10 11 15 9
25 20 22 25 -4 6 -2 10 4 10 5 0 12 14 16 30 4 17 13 30 20 30 17 0 57 55 47
65 -4 4 0 6 8 4 8 -1 22 1 30 4 8 4 27 11 43 16 l27 11 0 380 0 380 -252 0
c-230 -1 -251 -2 -225 -16z m-1663 -294 c0 -5 -4 -10 -10 -10 -5 0 -10 5 -10
10 0 6 5 10 10 10 6 0 10 -4 10 -10z m646 -116 c-4 -9 -9 -15 -11 -12 -3 3 -3
13 1 22 4 9 9 15 11 12 3 -3 3 -13 -1 -22z m34 10 c0 -8 -4 -12 -10 -9 -5 3
-10 10 -10 16 0 5 5 9 10 9 6 0 10 -7 10 -16z m-780 -158 c0 -15 -24 -28 -34
-19 -13 14 -5 33 14 33 11 0 20 -6 20 -14z m1840 -476 c0 -5 -7 -7 -15 -4 -8
4 -15 8 -15 10 0 2 7 4 15 4 8 0 15 -4 15 -10z m-909 -201 c11 -5 17 -14 14
-19 -6 -10 -45 9 -45 22 0 11 8 10 31 -3z m-531 -19 c0 -5 -2 -10 -4 -10 -3 0
-8 5 -11 10 -3 6 -1 10 4 10 6 0 11 -4 11 -10z m860 -74 c0 -3 -4 -8 -10 -11
-5 -3 -10 -1 -10 4 0 6 5 11 10 11 6 0 10 -2 10 -4z"/>
<path d="M2660 5030 c0 -5 6 -10 14 -10 8 0 18 5 21 10 3 6 -3 10 -14 10 -12
0 -21 -4 -21 -10z"/>
<path d="M4156 5007 c3 -10 9 -15 12 -12 3 3 0 11 -7 18 -10 9 -11 8 -5 -6z"/>
<path d="M2080 4870 c0 -5 5 -10 10 -10 6 0 10 5 10 10 0 6 -4 10 -10 10 -5 0
-10 -4 -10 -10z"/>
<path d="M2771 4864 c-18 -21 -6 -30 14 -11 8 9 15 18 15 21 0 11 -15 5 -29
-10z"/>
<path d="M2702 4819 c-15 -23 -16 -66 -2 -74 6 -3 14 5 19 18 6 14 15 28 20
32 17 10 13 32 -7 37 -11 3 -23 -2 -30 -13z"/>
<path d="M2787 4817 c-23 -28 -19 -62 8 -62 16 0 21 8 23 43 4 47 -5 52 -31
19z"/>
<path d="M2160 4795 c0 -15 4 -24 10 -20 6 3 10 12 10 20 0 8 -4 17 -10 20 -6
4 -10 -5 -10 -20z"/>
<path d="M1960 4696 c0 -2 9 -6 20 -9 11 -3 20 -1 20 4 0 5 -9 9 -20 9 -11 0
-20 -2 -20 -4z"/>
<path d="M2075 4425 c-22 -8 -41 -15 -42 -15 0 0 -6 -14 -12 -31 -6 -17 -15
-28 -20 -24 -6 3 -17 -8 -26 -25 -14 -27 -25 -35 -47 -31 -5 0 -8 -3 -8 -9 0
-5 -6 -7 -13 -4 -16 6 -29 -9 -47 -54 -12 -32 -50 -82 -96 -126 -12 -12 -25
-32 -29 -45 -12 -40 -47 -92 -59 -89 -14 3 -56 -33 -56 -48 0 -7 -8 -10 -17
-8 -19 5 -63 -52 -63 -80 0 -18 -32 -76 -42 -76 -5 0 -8 -10 -8 -22 0 -19 -2
-20 -10 -8 -7 10 -8 1 -4 -31 6 -47 -7 -89 -28 -89 -6 0 -6 6 3 16 10 13 10
17 -1 24 -18 11 -30 3 -30 -20 0 -10 -6 -23 -14 -27 -16 -10 -26 -81 -11 -86
6 -2 4 -11 -5 -22 -14 -17 -15 -16 -21 6 -4 15 -6 3 -5 -28 1 -47 3 -53 23
-53 12 0 25 -4 28 -10 4 -6 -7 -10 -24 -10 -17 0 -31 -5 -31 -11 0 -7 12 -10
30 -7 17 3 30 1 30 -4 0 -4 5 -8 10 -8 6 0 10 25 10 56 0 51 2 55 20 49 13 -4
22 -1 26 9 3 9 10 16 16 16 5 0 19 12 32 26 21 25 23 25 39 9 10 -9 15 -21 12
-26 -4 -5 -1 -9 4 -9 6 0 11 -8 11 -17 0 -14 2 -15 9 -5 6 10 10 6 15 -14 l8
-29 16 28 c9 15 20 27 24 27 8 0 12 -25 9 -44 -1 -5 4 -4 13 3 10 9 12 20 6
42 -5 17 -5 30 1 30 5 1 13 2 19 3 13 2 39 38 39 56 0 11 -4 10 -16 -5 -14
-18 -15 -18 -9 -2 3 10 6 21 6 23 0 2 7 4 15 4 11 0 14 11 12 49 -2 28 1 47 6
44 5 -3 7 10 6 29 -2 19 3 49 11 68 35 90 100 218 124 245 14 17 27 33 27 38
1 4 2 11 3 15 0 5 15 22 31 39 17 17 45 57 63 89 64 115 72 129 88 141 9 7 14
19 11 27 -3 8 1 17 9 20 8 3 14 10 14 16 0 6 -4 8 -10 5 -5 -3 -10 -1 -10 4 0
14 -16 13 -65 -4z m-629 -840 c-25 -19 -36 -19 -36 0 0 10 10 15 28 15 26 -1
26 -1 8 -15z"/>
<path d="M2695 4390 c3 -5 8 -10 11 -10 2 0 4 5 4 10 0 6 -5 10 -11 10 -5 0
-7 -4 -4 -10z"/>
<path d="M1540 4044 c0 -8 5 -12 10 -9 6 4 8 11 5 16 -9 14 -15 11 -15 -7z"/>
<path d="M4780 4050 c0 -5 5 -10 10 -10 6 0 10 5 10 10 0 6 -4 10 -10 10 -5 0
-10 -4 -10 -10z"/>
<path d="M4970 3979 c-11 -8 -12 -12 -2 -16 19 -8 14 -23 -8 -23 -22 0 -27
-15 -7 -24 6 -3 1 -5 -13 -4 -36 2 -60 -11 -60 -32 0 -10 -6 -21 -12 -24 -10
-5 -10 -7 0 -12 7 -3 12 -26 12 -60 0 -30 4 -54 9 -54 5 0 12 -29 16 -65 6
-59 9 -65 30 -65 13 0 25 5 27 12 6 17 50 18 69 1 12 -10 28 -12 53 -8 l36 7
0 156 c0 144 -1 155 -16 134 -8 -12 -24 -22 -35 -22 -11 0 -24 -10 -29 -22 -8
-18 -10 -12 -7 28 3 46 2 51 -16 50 -11 -1 -21 6 -22 15 -2 10 5 15 18 15 11
-1 22 5 24 12 6 15 -46 16 -67 1z m50 -69 c0 -5 -5 -10 -11 -10 -5 0 -7 5 -4
10 3 6 8 10 11 10 2 0 4 -4 4 -10z"/>
<path d="M3380 3849 c0 -5 5 -7 10 -4 6 3 10 8 10 11 0 2 -4 4 -10 4 -5 0 -10
-5 -10 -11z"/>
<path d="M3141 3644 c0 -11 3 -14 6 -6 3 7 2 16 -1 19 -3 4 -6 -2 -5 -13z"/>
<path d="M2480 3610 c0 -5 5 -10 11 -10 5 0 7 5 4 10 -3 6 -8 10 -11 10 -2 0
-4 -4 -4 -10z"/>
<path d="M3145 3610 c3 -5 8 -10 11 -10 2 0 4 5 4 10 0 6 -5 10 -11 10 -5 0
-7 -4 -4 -10z"/>
<path d="M2457 3551 c-15 -15 -25 -30 -21 -33 3 -4 -1 -14 -10 -23 -9 -9 -16
-20 -16 -25 0 -14 22 -23 29 -12 4 7 11 7 22 -1 13 -10 14 -15 4 -24 -7 -7
-16 -9 -19 -6 -14 14 -5 -12 10 -28 13 -14 21 -16 35 -8 11 5 25 7 32 2 6 -4
4 5 -6 20 -15 24 -16 27 -2 27 9 0 13 -4 10 -10 -3 -5 -1 -10 4 -10 6 0 11 5
11 11 0 6 9 8 20 4 14 -4 20 -2 20 8 0 9 -6 17 -12 19 -10 4 -10 10 -1 29 l12
24 1 -25 c0 -22 2 -23 11 -7 5 9 7 22 3 29 -4 7 -3 8 4 4 7 -4 12 -1 12 7 0
14 -20 27 -40 27 -4 0 -11 -16 -14 -35 -6 -33 -8 -34 -23 -19 -14 13 -14 17
-2 24 11 7 9 14 -11 34 -13 15 -26 26 -29 25 -3 0 -19 -12 -34 -28z"/>
<path d="M3140 3510 c0 -5 5 -10 10 -10 6 0 10 5 10 10 0 6 -4 10 -10 10 -5 0
-10 -4 -10 -10z"/>
<path d="M2372 3470 c-25 -24 -27 -30 -9 -30 12 0 42 39 34 46 -2 2 -13 -5
-25 -16z"/>
<path d="M2880 3464 c0 -8 5 -12 10 -9 6 3 10 10 10 16 0 5 -4 9 -10 9 -5 0
-10 -7 -10 -16z"/>
<path d="M1591 3424 c0 -11 3 -14 6 -6 3 7 2 16 -1 19 -3 4 -6 -2 -5 -13z"/>
<path d="M1340 3388 c0 -9 7 -22 17 -29 15 -13 15 -12 3 11 -17 34 -20 36 -20
18z"/>
<path d="M2080 3377 c0 -3 7 -18 15 -33 l16 -29 -3 29 c-2 16 -9 31 -15 34 -7
2 -13 2 -13 -1z"/>
<path d="M5098 3338 c-10 -10 -18 -27 -18 -38 0 -11 -4 -20 -9 -20 -5 0 -13
-19 -17 -42 -4 -24 -9 -46 -10 -50 -1 -5 -2 -17 -3 -27 0 -11 -7 -26 -13 -33
-7 -7 -22 -30 -32 -51 -11 -21 -25 -36 -32 -33 -7 3 -18 -2 -24 -10 -8 -9 -9
-14 -2 -14 6 0 13 6 15 13 4 9 6 9 6 -1 1 -7 -10 -18 -24 -24 -14 -6 -25 -19
-25 -30 0 -10 -6 -18 -13 -18 -8 0 -20 -11 -27 -25 -7 -14 -18 -24 -24 -23 -6
1 -28 -1 -48 -5 -29 -6 -45 -18 -69 -52 -18 -24 -36 -42 -40 -39 -5 3 -16 -13
-25 -36 -9 -22 -19 -38 -22 -36 -11 12 -30 -16 -25 -36 5 -17 3 -19 -16 -13
-15 4 -21 2 -21 -8 0 -8 -7 -17 -15 -21 -19 -7 -20 -26 -1 -26 12 0 13 -7 6
-31 -5 -18 -7 -36 -4 -40 3 -5 -5 -9 -17 -9 -16 0 -20 -5 -16 -20 3 -11 1 -20
-4 -20 -5 0 -8 -13 -7 -29 2 -33 -31 -80 -42 -60 -9 13 -50 -5 -50 -21 0 -6
-5 -10 -11 -10 -6 0 -25 -11 -43 -25 -18 -14 -38 -25 -43 -25 -6 0 -16 -7 -23
-15 -10 -12 -10 -15 1 -15 9 -1 7 -6 -6 -16 -15 -11 -17 -17 -7 -23 10 -6 10
-18 2 -55 -6 -26 -9 -63 -8 -81 1 -19 -5 -42 -13 -52 -29 -35 -41 -79 -40
-144 2 -72 -6 -122 -19 -114 -14 8 -18 -41 -20 -205 -4 -264 -5 -288 -12 -277
-4 7 -8 -6 -9 -28 -1 -22 -2 -44 -4 -50 -1 -5 -3 -14 -4 -20 -1 -5 -5 -16 -10
-24 -7 -11 -14 -9 -33 14 -28 32 -54 27 -43 -9 3 -11 8 -29 10 -40 2 -10 11
-26 20 -36 8 -9 15 -21 15 -26 0 -5 7 -22 16 -39 19 -36 21 -241 2 -316 -11
-45 -3 -151 10 -133 9 12 32 16 32 5 0 -5 -9 -11 -19 -14 -27 -7 -34 -67 -17
-157 8 -41 15 -66 15 -55 1 17 3 17 11 5 13 -20 12 -30 -1 -30 -14 0 -49 -39
-49 -55 0 -6 -11 -40 -25 -76 -14 -35 -26 -78 -27 -96 -1 -18 -5 -30 -10 -27
-4 3 -8 -8 -8 -24 0 -16 -3 -50 -6 -76 l-7 -46 57 0 c55 0 56 1 56 28 0 16 8
34 20 42 11 8 20 19 20 25 0 13 70 49 78 40 4 -3 2 -9 -4 -13 -6 -4 -12 -25
-12 -47 -1 -22 -6 -41 -12 -43 -5 -2 -10 -10 -10 -18 0 -12 60 -14 388 -14
288 0 391 3 400 12 9 9 12 9 12 0 0 -7 16 -12 40 -12 l40 0 0 905 c0 795 -2
905 -15 905 -17 0 -31 43 -20 60 6 9 10 9 16 -1 4 -7 10 -11 14 -8 3 3 4 341
3 750 -3 709 -4 743 -20 727z m-924 -2843 c3 -8 1 -15 -4 -15 -6 0 -10 7 -10
15 0 8 2 15 4 15 2 0 6 -7 10 -15z m724 -95 c12 0 13 -3 5 -11 -9 -9 -16 -8
-27 3 -8 9 -12 19 -8 22 4 4 8 2 10 -3 2 -6 11 -11 20 -11z m-78 -151 c0 -5
-10 -9 -21 -9 -18 0 -19 2 -9 15 12 15 30 12 30 -6z"/>
<path d="M2962 3263 c2 -26 8 -37 21 -39 10 -1 21 4 24 12 9 24 -7 31 -23 9
-13 -18 -14 -17 -10 18 3 21 1 37 -5 37 -6 0 -9 -16 -7 -37z"/>
<path d="M1582 2984 c11 -11 -20 -62 -42 -69 -11 -3 -20 -13 -20 -21 0 -8 -4
-14 -9 -14 -5 0 -11 -13 -14 -29 -6 -28 -7 -28 -46 -18 -54 15 -61 6 -68 -84
-3 -41 -12 -83 -19 -94 -14 -19 -14 -19 -15 0 0 17 -2 16 -10 -5 -5 -13 -9
-49 -7 -80 3 -77 -11 -182 -25 -173 -5 3 -7 1 -4 -4 11 -18 -4 -75 -19 -69
-17 6 -25 -18 -18 -53 5 -22 0 -35 -17 -52 -19 -19 -24 -38 -30 -114 -4 -49
-9 -102 -12 -117 -2 -15 -1 -25 4 -22 4 2 13 -13 20 -35 7 -22 16 -38 20 -35
10 6 5 -149 -5 -165 -4 -6 -2 -27 5 -46 10 -27 10 -47 0 -98 -12 -61 -9 -153
5 -193 4 -10 18 -35 30 -55 13 -20 20 -40 17 -43 -4 -3 2 -6 13 -7 10 0 13 -3
7 -6 -7 -2 -13 -13 -13 -24 0 -17 11 -24 33 -20 5 1 5 -4 1 -10 -4 -8 -3 -9 4
-5 7 4 12 21 12 37 0 17 6 32 15 35 8 4 13 10 10 14 -3 5 3 15 13 22 11 7 22
23 26 36 4 12 12 20 17 16 5 -3 7 -10 3 -15 -4 -7 5 -9 22 -7 38 4 72 71 79
157 3 36 11 71 16 78 6 7 8 20 5 29 -9 23 24 60 36 42 6 -8 7 -5 3 10 -4 14
-1 28 10 38 13 14 14 30 8 107 -4 51 -7 103 -7 117 5 165 14 294 21 299 16 12
43 73 36 83 -3 7 -1 8 6 4 9 -6 10 0 5 21 -4 15 -8 51 -8 78 1 28 -4 53 -9 57
-6 3 -2 21 12 43 11 20 19 40 16 44 -2 5 0 22 5 40 5 19 5 31 -1 31 -5 0 -9
18 -9 40 0 22 -4 40 -9 40 -4 0 -6 -12 -3 -26 3 -19 1 -25 -7 -20 -6 4 -11 21
-11 38 0 23 -3 28 -12 20 -10 -8 -13 -5 -15 11 -1 12 -6 44 -12 72 -8 34 -8
59 -1 79 14 42 12 66 -6 66 -8 0 -13 4 -10 9 3 5 -2 12 -11 15 -10 4 -14 4
-11 0z m-111 -217 c-10 -9 -11 -8 -5 6 3 10 9 15 12 12 3 -3 0 -11 -7 -18z
m-134 -349 c-3 -7 -5 -2 -5 12 0 14 2 19 5 13 2 -7 2 -19 0 -25z"/>
<path d="M1647 2973 c-4 -3 -7 -13 -7 -22 1 -13 3 -13 11 2 11 19 8 33 -4 20z"/>
<path d="M2285 2930 c-3 -6 1 -7 9 -4 18 7 21 14 7 14 -6 0 -13 -4 -16 -10z"/>
<path d="M787 2540 c3 -11 7 -20 9 -20 2 0 4 9 4 20 0 11 -4 20 -9 20 -5 0 -7
-9 -4 -20z"/>
<path d="M2036 1645 c-11 -8 -15 -15 -9 -15 6 0 16 7 23 15 16 19 11 19 -14 0z"/>
<path d="M1991 1318 c1 -27 3 -34 6 -19 4 19 7 21 14 10 6 -10 9 -4 9 19 0 22
-5 32 -15 32 -11 0 -15 -11 -14 -42z"/>
<path d="M1307 1223 c-10 -19 -17 -63 -9 -63 9 0 32 44 32 60 0 12 -17 13 -23
3z"/>
<path d="M3888 1194 c-5 -4 -8 -21 -7 -38 0 -30 0 -30 10 -7 11 27 8 57 -3 45z"/>
<path d="M977 1101 c-4 -17 -3 -21 5 -13 5 5 8 16 6 23 -3 8 -7 3 -11 -10z"/>
<path d="M830 630 c0 -5 5 -10 10 -10 6 0 10 5 10 10 0 6 -4 10 -10 10 -5 0
-10 -4 -10 -10z"/>
<path d="M825 429 c-11 -17 1 -21 15 -4 8 9 8 15 2 15 -6 0 -14 -5 -17 -11z"/>
</g>
</svg>
